<?xml version="1.0" encoding="UTF-8" standalone="no"?> <!DOCTYPE svg PUBLIC "-//W3C//DTD SVG 1.1//EN" "http://www.w3.org/Graphics/SVG/1.1/DTD/svg11.dtd"> <svg width="528pt" height="284pt" viewBox="0.00 0.00 528.00 284.00" xmlns="http://www.w3.org/2000/svg" xmlns:xlink="http://www.w3.org/1999/xlink"> <g id="graph0" class="graph" transform="scale(1 1) rotate(0) translate(4 280)"> <title>dependencies</title> <polygon fill="#ffffff" stroke="transparent" points="-4,4 -4,-280 524,-280 524,4 -4,4"/> <text text-anchor="start" x="239.0091" y="-42.4" font-family="sans-serif" font-weight="bold" font-size="14.00" fill="#000000">Legend</text> <polygon fill="#ffffb3" stroke="transparent" points="26,-10 26,-30 46,-30 46,-10 26,-10"/> <text text-anchor="start" x="49.629" y="-15.4" font-family="sans-serif" font-size="14.00" fill="#000000"> Declarations</text> <polygon fill="#8dd3c7" stroke="transparent" points="139,-10 139,-30 159,-30 159,-10 139,-10"/> <text text-anchor="start" x="162.7251" y="-15.4" font-family="sans-serif" font-size="14.00" fill="#000000"> Module</text> <polygon fill="#80b1d3" stroke="transparent" points="225,-10 225,-30 245,-30 245,-10 225,-10"/> <text text-anchor="start" x="248.7812" y="-15.4" font-family="sans-serif" font-size="14.00" fill="#000000"> Bootstrap</text> <polygon fill="#fdb462" stroke="transparent" points="322,-10 322,-30 342,-30 342,-10 322,-10"/> <text text-anchor="start" x="345.6732" y="-15.4" font-family="sans-serif" font-size="14.00" fill="#000000"> Providers</text> <polygon fill="#fb8072" stroke="transparent" points="418,-10 418,-30 438,-30 438,-10 418,-10"/> <text text-anchor="start" x="441.7258" y="-15.4" font-family="sans-serif" font-size="14.00" fill="#000000"> Exports</text> <g id="clust1" class="cluster"> <title>cluster_GhContribCalendarModule</title> <polygon fill="none" stroke="#000000" stroke-dasharray="1,5" points="8,-70 8,-268 512,-268 512,-70 8,-70"/> </g> <g id="clust2" class="cluster"> <title>cluster_GhContribCalendarModule_declarations</title> <polygon fill="none" stroke="#000000" points="16,-78 16,-130 504,-130 504,-78 16,-78"/> </g> <g id="clust8" class="cluster"> <title>cluster_GhContribCalendarModule_exports</title> <polygon fill="none" stroke="#000000" points="103,-208 103,-260 315,-260 315,-208 103,-208"/> </g> <g id="node1" class="node"> <title>GhContribCalendarComponent</title> <polygon fill="#ffffb3" stroke="#000000" points="495.7492,-122 304.2508,-122 304.2508,-86 495.7492,-86 495.7492,-122"/> <text text-anchor="middle" x="400" y="-99.8" font-family="Times,serif" font-size="14.00" fill="#000000">GhContribCalendarComponent</text> </g> <g id="node5" class="node"> <title>GhContribCalendarModule</title> <polygon fill="#8dd3c7" stroke="#000000" points="293.9664,-187 290.9664,-191 269.9664,-191 266.9664,-187 124.0336,-187 124.0336,-151 293.9664,-151 293.9664,-187"/> <text text-anchor="middle" x="209" y="-164.8" font-family="Times,serif" font-size="14.00" fill="#000000">GhContribCalendarModule</text> </g> <g id="edge1" class="edge"> <title>GhContribCalendarComponent->GhContribCalendarModule</title> <path fill="none" stroke="#000000" d="M303.9705,-104C295.4957,-104 290.0446,-104 290.0446,-104 290.0446,-104 290.0446,-140.8939 290.0446,-140.8939"/> <polygon fill="#000000" stroke="#000000" points="286.5446,-140.8938 290.0446,-150.8939 293.5446,-140.8939 286.5446,-140.8938"/> </g> <g id="node2" class="node"> <title>Chevron</title> <polygon fill="#ffffb3" stroke="#000000" points="286.2122,-122 221.7878,-122 221.7878,-86 286.2122,-86 286.2122,-122"/> <text text-anchor="middle" x="254" y="-99.8" font-family="Times,serif" font-size="14.00" fill="#000000">Chevron</text> </g> <g id="edge2" class="edge"> <title>Chevron->GhContribCalendarModule</title> <path fill="none" stroke="#000000" d="M254,-122.1061C254,-122.1061 254,-140.991 254,-140.991"/> <polygon fill="#000000" stroke="#000000" points="250.5001,-140.9909 254,-150.991 257.5001,-140.991 250.5001,-140.9909"/> </g> <g id="node3" class="node"> <title>DayDetails</title> <polygon fill="#ffffb3" stroke="#000000" points="203.4734,-122 124.5266,-122 124.5266,-86 203.4734,-86 203.4734,-122"/> <text text-anchor="middle" x="164" y="-99.8" font-family="Times,serif" font-size="14.00" fill="#000000">DayDetails</text> </g> <g id="edge3" class="edge"> <title>DayDetails->GhContribCalendarModule</title> <path fill="none" stroke="#000000" d="M164,-122.1061C164,-122.1061 164,-140.991 164,-140.991"/> <polygon fill="#000000" stroke="#000000" points="160.5001,-140.9909 164,-150.991 167.5001,-140.991 160.5001,-140.9909"/> </g> <g id="node4" class="node"> <title>LoadingBar</title> <polygon fill="#ffffb3" stroke="#000000" points="106.3697,-122 23.6303,-122 23.6303,-86 106.3697,-86 106.3697,-122"/> <text text-anchor="middle" x="65" y="-99.8" font-family="Times,serif" font-size="14.00" fill="#000000">LoadingBar</text> </g> <g id="edge4" class="edge"> <title>LoadingBar->GhContribCalendarModule</title> <path fill="none" stroke="#000000" d="M65,-122.1061C65,-141.3391 65,-169 65,-169 65,-169 113.9858,-169 113.9858,-169"/> <polygon fill="#000000" stroke="#000000" points="113.9858,-172.5001 123.9858,-169 113.9858,-165.5001 113.9858,-172.5001"/> </g> <g id="node6" class="node"> <title>GhContribCalendarComponent </title> <polygon fill="#fb8072" stroke="#000000" points="306.7492,-252 111.2508,-252 111.2508,-216 306.7492,-216 306.7492,-252"/> <text text-anchor="middle" x="209" y="-229.8" font-family="Times,serif" font-size="14.00" fill="#000000">GhContribCalendarComponent </text> </g> <g id="edge5" class="edge"> <title>GhContribCalendarModule->GhContribCalendarComponent </title> <path fill="none" stroke="#000000" stroke-dasharray="5,2" d="M209,-187.1061C209,-187.1061 209,-205.991 209,-205.991"/> <polygon fill="#000000" stroke="#000000" points="205.5001,-205.9909 209,-215.991 212.5001,-205.991 205.5001,-205.9909"/> </g> </g> </svg> 